<svg xmlns="http://www.w3.org/2000/svg" xmlns:xlink="http://www.w3.org/1999/xlink" width="940" zoomAndPan="magnify" viewBox="0 0 705 591.000005" height="788" preserveAspectRatio="xMidYMid meet" version="1.0"><path fill="#ad0fff" d="M 196.140625 377.625 C 201.6875 371.347656 206.058594 365.796875 211.042969 360.863281 C 227.679688 344.496094 243.753906 327.457031 261.566406 312.433594 C 280.78125 296.238281 308.394531 300.609375 326.09375 319.386719 C 330.519531 324.039062 338.304688 325.496094 345.308594 328.746094 C 348.332031 336.257812 341.164062 339.566406 336.738281 343.769531 C 296.574219 381.941406 265.375 427.007812 238.320312 474.820312 C 227.957031 493.09375 221.011719 513.382812 213.171875 533 C 207.007812 548.414062 206.226562 550.601562 189.421875 549.257812 C 159.453125 546.847656 133.351562 536.644531 114.472656 510.859375 C 81.59375 466.074219 46.136719 423.140625 21.488281 372.859375 C 17.511719 364.675781 14.542969 355.988281 9.054688 342.535156 C 33.644531 346.964844 53.867188 346.796875 66.863281 366.359375 C 74.816406 378.351562 82.9375 390.179688 93.917969 406.546875 C 96.71875 389.339844 98.453125 377.457031 100.582031 365.683594 C 116.65625 276.953125 152.339844 196.910156 219.277344 135.925781 C 280.164062 80.378906 351.695312 41.984375 437.453125 40.917969 C 509.484375 40.078125 571.324219 68.328125 625.378906 113.730469 C 647 131.949219 665.316406 154.199219 684.53125 175.164062 C 689.515625 180.601562 692.261719 188 696.011719 194.558594 C 694.558594 195.957031 693.101562 197.359375 691.644531 198.761719 C 682.792969 193.269531 673.609375 188.222656 665.261719 182.058594 C 660.050781 178.191406 656.019531 172.699219 651.648438 167.765625 C 595.636719 104.371094 524.890625 87.441406 444.734375 104.707031 C 383.511719 117.878906 332.929688 150.894531 290.414062 196.128906 C 245.492188 243.828125 215.019531 299.992188 196.757812 362.882812 C 195.917969 365.683594 195.246094 368.542969 194.796875 371.402344 C 194.6875 372.691406 195.359375 374.09375 196.140625 377.625 Z M 196.140625 377.625 " fill-opacity="1" fill-rule="nonzero"/></svg>